<svg width="37" height="38" viewBox="0 0 37 38" fill="none" xmlns="http://www.w3.org/2000/svg">
                    <path fill-rule="evenodd" clip-rule="evenodd" d="M35.9606 13.88C34.7889 6.66876 28.6638 1.30399 21.361 1.0928C21.0138 1.07919 20.6754 1.2042 20.4205 1.44029C20.1655 1.67637 20.0149 2.00415 20.0018 2.35138V2.35138V2.46885L20.824 14.7694C20.878 15.5974 21.5898 16.2269 22.4182 16.179L34.7523 15.3567C35.0999 15.331 35.4228 15.1678 35.6496 14.9032C35.8764 14.6386 35.9883 14.2945 35.9606 13.9471V13.88Z" stroke="#40196d" stroke-width="2" stroke-linecap="round" stroke-linejoin="round"></path>
                    <path d="M12.8195 8.40957C13.6041 8.22809 14.407 8.62953 14.7325 9.36609C14.8178 9.53933 14.8691 9.72732 14.8835 9.91987C15.0514 12.3028 15.4038 17.5217 15.6051 20.3409C15.6395 20.8488 15.8749 21.322 16.2591 21.6558C16.6433 21.9896 17.1448 22.1566 17.6524 22.1197V22.1197L28.0064 21.482C28.4686 21.4542 28.9218 21.6187 29.2586 21.9365C29.5954 22.2542 29.786 22.6971 29.7851 23.1601V23.1601C29.3656 29.4125 24.8735 34.6394 18.7553 35.9942C12.6371 37.3491 6.3582 34.5074 3.33816 29.0167C2.43662 27.4365 1.86569 25.6894 1.66005 23.8817C1.57214 23.3269 1.53842 22.7649 1.55937 22.2036C1.57718 15.5266 6.26646 9.7735 12.8027 8.40957" stroke="#40196d" stroke-width="2" stroke-linecap="round" stroke-linejoin="round"></path>
                  </svg>