                  <svg width="45" height="44" viewBox="0 0 45 44" fill="none" xmlns="http://www.w3.org/2000/svg">
                    <path d="M26.5332 3.66699H22.1332C21.5253 3.66699 21.0332 4.15907 21.0332 4.76699C21.0332 5.37491 21.5253 5.86699 22.1332 5.86699H26.5332C27.1411 5.86699 27.6332 5.37491 27.6332 4.76699C27.6332 4.15907 27.1411 3.66699 26.5332 3.66699Z" fill="#40196d"></path>
                    <path d="M31.3001 0H13.7001C11.2743 0 9.30011 1.97416 9.30011 4.4V39.6C9.30011 42.0258 11.2743 44 13.7001 44H31.3001C33.726 44 35.7001 42.0258 35.7001 39.6V4.4C35.7001 1.97416 33.726 0 31.3001 0ZM33.5001 39.6C33.5001 40.8152 32.5153 41.8 31.3001 41.8H13.7001C12.485 41.8 11.5001 40.8152 11.5001 39.6V4.4C11.5001 3.18484 12.485 2.2 13.7001 2.2H31.3001C32.5153 2.2 33.5001 3.18484 33.5001 4.4V39.6Z" fill="#40196d"></path>
                    <path d="M22.5002 40.3336C23.7152 40.3336 24.7002 39.3486 24.7002 38.1336C24.7002 36.9186 23.7152 35.9336 22.5002 35.9336C21.2851 35.9336 20.3002 36.9186 20.3002 38.1336C20.3002 39.3486 21.2851 40.3336 22.5002 40.3336Z" fill="#40196d"></path>
                    <path d="M18.4666 5.86699C19.0741 5.86699 19.5666 5.3745 19.5666 4.76699C19.5666 4.15948 19.0741 3.66699 18.4666 3.66699C17.8591 3.66699 17.3666 4.15948 17.3666 4.76699C17.3666 5.3745 17.8591 5.86699 18.4666 5.86699Z" fill="#40196d"></path>
                  </svg>